<svg width="20" height="20" viewBox="0 0 20 20" fill="none" xmlns="http://www.w3.org/2000/svg">
<rect width="20" height="20" rx="10" fill="url(#paint0_linear_35939_11119)"/>
<path d="M7.5 6.84001C8.62702 6.15001 9.39995 4.93326 9.49098 3.52911C11.1272 4.35083 12.25 6.0443 12.25 8.00001C12.25 8.57583 12.1527 9.12891 11.9735 9.6437C12.8227 9.38736 13.4813 8.6915 13.6846 7.82063C14.4974 8.63477 15 9.75869 15 11C15 12.9593 13.7478 14.6262 12 15.2439C10.2522 14.6262 9 12.9593 9 11C9 10.9503 9.00081 10.9008 9.00241 10.8515C8.37861 11.5569 8 12.4843 8 13.5C8 13.9852 8.08637 14.4501 8.24457 14.8804C6.38263 14.4287 5 12.7508 5 10.75C5 9.15607 5.87746 7.76708 7.1757 7.03972L7.5 6.84001Z" fill="white"/>
<defs>
<linearGradient id="paint0_linear_35939_11119" x1="-10" y1="10" x2="10" y2="30" gradientUnits="userSpaceOnUse">
<stop stop-color="#FF5263"/>
<stop offset="1" stop-color="#FF3347"/>
</linearGradient>
</defs>
</svg>
