<svg width="33" height="17" viewBox="0 0 33 17" fill="none" xmlns="http://www.w3.org/2000/svg">
<rect x="0.651855" y="0.671021" width="31" height="15" rx="5.5" stroke="#71AAEB"/>
<path d="M7.45186 10.9031H6.30186V5.70308H7.16186L7.39186 6.48308C7.72186 5.93308 8.31186 5.60308 8.95186 5.60308C10.0819 5.60308 10.9319 6.51308 10.9319 7.76308V10.9031H9.78186V7.89308C9.78186 7.15308 9.31186 6.63308 8.64186 6.63308C7.95186 6.63308 7.45186 7.15308 7.45186 7.89308V10.9031ZM17.2808 8.24308C17.2808 8.38308 17.2708 8.50308 17.2608 8.61308H13.0808C13.1908 9.41308 13.7708 9.95308 14.6508 9.95308C15.2608 9.95308 15.7408 9.69308 15.9908 9.32308L17.0708 9.50308C16.6808 10.4931 15.6608 11.0031 14.5808 11.0031C13.0008 11.0031 11.8808 9.87308 11.8808 8.30308C11.8808 6.73308 13.0008 5.60308 14.5808 5.60308C16.1608 5.60308 17.2808 6.74308 17.2808 8.24308ZM14.5808 6.60308C13.8808 6.60308 13.3408 7.04308 13.1508 7.71308H16.0308C15.8408 7.06308 15.3008 6.60308 14.5808 6.60308ZM20.7069 10.9031H19.0269L17.6269 5.70308H18.8069L19.8569 9.75308H20.0169L21.0869 5.70308H22.2669L23.3369 9.75308H23.4969L24.5369 5.70308H25.6769L24.2969 10.9031H22.6269L21.7469 7.50308H21.5869L20.7069 10.9031Z" fill="#71AAEB"/>
</svg>
