<svg width="33" height="10" viewBox="0 0 33 10" fill="none" xmlns="http://www.w3.org/2000/svg">
<path d="M2.05121 9.34437H0.151855V0.755981H1.57224L1.95211 2.04424C2.49715 1.13585 3.4716 0.59082 4.52863 0.59082C6.39495 0.59082 7.79882 2.09379 7.79882 4.1583V9.34437H5.89947V4.37301C5.89947 3.15082 5.12321 2.29198 4.01663 2.29198C2.87702 2.29198 2.05121 3.15082 2.05121 4.37301V9.34437Z" fill="#71AAEB"/>
<path d="M18.2848 4.95108C18.2848 5.1823 18.2682 5.3805 18.2517 5.56218H11.348C11.5297 6.88347 12.4876 7.77534 13.941 7.77534C14.9485 7.77534 15.7413 7.34592 16.1542 6.73482L17.9379 7.03211C17.2938 8.66721 15.6091 9.50953 13.8254 9.50953C11.2159 9.50953 9.36605 7.64321 9.36605 5.05018C9.36605 2.45714 11.2159 0.59082 13.8254 0.59082C16.435 0.59082 18.2848 2.47366 18.2848 4.95108ZM13.8254 2.24243C12.6693 2.24243 11.7774 2.96914 11.4636 4.07572H16.2202C15.9064 3.00218 15.0146 2.24243 13.8254 2.24243Z" fill="#71AAEB"/>
<path d="M23.9433 9.34437H21.1686L18.8564 0.755981H20.8053L22.5395 7.44501H22.8037L24.571 0.755981H26.5199L28.2871 7.44501H28.5513L30.269 0.755981H32.1519L29.8726 9.34437H27.1144L25.661 3.72889H25.3968L23.9433 9.34437Z" fill="#71AAEB"/>
</svg>
